<svg xmlns="http://www.w3.org/2000/svg" xmlns:xlink="http://www.w3.org/1999/xlink" width="57" height="54" viewBox="0 0 57 54">
    <defs>
        <path id="a" d="M0 .111h22.43v53.156H0z"/>
        <path id="c" d="M.68.542h27.606v49.323H.679z"/>
    </defs>
    <g fill="none" fill-rule="evenodd">
        <g transform="translate(.85 .122)">
            <mask id="b" fill="#fff">
                <use xlink:href="#a"/>
            </mask>
            <path fill="#FFF" d="M20.727 23.88v2.976l-.875.51v.642h-2.597v1.721h2.597v.62l.875.508v2.976l-.875.508v.645h-2.597v1.723h2.597v.615l.875.509v2.992l-.875.509v.63h-2.597v1.722h2.597v.63l.875.508v4.959a1.761 1.761 0 0 1-1.748 1.762H3.451a1.758 1.758 0 0 1-1.746-1.765v-3.204a3.462 3.462 0 0 1 2.962-2.89l9.139-.012-.002-1.72-11.226.01v-.63l-.873-.51v-1.219c.251-1.56 1.527-2.775 3.11-2.909h8.989v-1.72H2.578v-.635l-.873-.508v-1.22a3.467 3.467 0 0 1 2.987-2.895h9.112v-1.723H2.578v-.624l-.873-.509v-1.218c.248-1.538 1.488-2.74 3.037-2.903h9.062V21.02H2.578v-.632l-.723-.42a12.21 12.21 0 0 1 5.901-8.661l.85-1.49V7.506h5.219v2.294l.852 1.491a12.208 12.208 0 0 1 5.902 8.675l-.727.422v.642h-2.597v1.723h2.597v.618l.875.51zM7.765 5.19v.129c0-1.916 1.528-3.468 3.42-3.485h3.492v3.508H7.763l.002-.153zm14.632 15.703A13.955 13.955 0 0 0 15.53 9.799V7.063l.852-.862V.972L15.53.111H6.902l-.854.861v5.23l.854.86v2.755A13.944 13.944 0 0 0 .038 20.893l1.688.985L0 22.885v4.971l1.726 1.008L0 29.87v4.957l1.726 1.005L0 36.84v4.98l1.726 1.007L0 43.83v5.95c0 1.925 1.546 3.487 3.45 3.487h15.53c1.905 0 3.45-1.559 3.45-3.483V43.83l-1.724-1.004 1.725-1.006v-4.981l-1.725-1.007 1.725-1.005v-4.964l-1.725-1.005 1.725-1.006v-4.967l-1.725-1.007 1.691-.985z" mask="url(#b)"/>
        </g>
        <g transform="translate(27.778 3.522)">
            <mask id="d" fill="#fff">
                <use xlink:href="#c"/>
            </mask>
            <path fill="#FFF" d="M26.583 19.555L2.385 34.832V19.748a3.468 3.468 0 0 1 2.99-3.023h21.208v2.83zm0 11.924L2.385 46.759v-9.897l24.198-15.276v9.893zm0 13.888a3.472 3.472 0 0 1-2.573 2.778H3.406l23.177-14.636v11.858zM14.865 7.26l-.762 1.541 12.278 6.2H1.744l9.969-13.426L10.351.542.679 13.57v36.295h27.607V14.041l-13.421-6.78z" mask="url(#d)"/>
        </g>
    </g>
</svg>
