<svg xmlns="http://www.w3.org/2000/svg" width="45" height="55" viewBox="0 0 45 55">
    <g fill="#FEFEFE" fill-rule="evenodd">
        <path d="M14.997 15.05h16.919V8.27H14.997v6.781zM32.75 16.72l.836-.836v-8.45l-.836-.833H14.162l-.834.833v8.45l.834.836h18.587zM14.162 25.169h18.586V23.5H14.162zM14.162 28.549h18.556V26.88H14.162zM14.162 31.929h10.14v-1.67h-10.14zM5.712 48.829h33.764v-1.67H5.712z"/>
        <path d="M42.909 53.084H7.404a5.096 5.096 0 0 1-5.09-5.09 5.097 5.097 0 0 1 5.09-5.091h30.414l1.669-1.67V5.723h3.422v47.361zM2.313 28.55H7.4v12.684h.005a6.739 6.739 0 0 0-5.09 2.315v-15zm0-1.67H7.4v-1.71H2.313v1.71zm0-19.445c0-2.8 2.279-5.084 5.072-5.09H7.4V23.5H2.313V7.434zm6.755-5.09H37.84v1.71h-.02v33.8a3.378 3.378 0 0 1-3.381 3.38H9.068V2.343zm30.44 1.71V.674H7.385a6.76 6.76 0 0 0-6.741 6.76V47.993a6.759 6.759 0 0 0 6.76 6.76H44.58V4.054h-5.071z"/>
    </g>
</svg>
