<svg xmlns="http://www.w3.org/2000/svg" width="53" height="55" viewBox="0 0 53 55">
    <g fill="#FEFEFE" fill-rule="evenodd">
        <path d="M21.93 38.38h7.444v-1.7H21.93zM21.931 41.12h4.779v-1.7H21.93zM32.275 34.394h-1.7c0-2.808 2.321-5.311 2.421-5.416a8.57 8.57 0 0 0 2.331-5.885c0-4.745-3.865-8.603-8.617-8.603-4.752 0-8.617 3.858-8.617 8.603a8.56 8.56 0 0 0 2.312 5.864c.1.108 2.442 2.651 2.442 5.437h-1.702c0-1.764-1.433-3.687-1.986-4.279a10.255 10.255 0 0 1-2.768-7.022c0-5.681 4.63-10.3 10.319-10.3 5.69 0 10.319 4.619 10.319 10.3 0 2.628-.992 5.13-2.794 7.047-.018.02-1.96 2.124-1.96 4.254"/>
        <path d="M25.861 34.085h1.7v-4.837h-1.7z"/>
        <path d="M26.71 30.097a3.223 3.223 0 0 1-3.221-3.215 3.223 3.223 0 0 1 3.22-3.217 3.223 3.223 0 0 1 3.221 3.217 3.222 3.222 0 0 1-3.22 3.215m0-4.732c-.838 0-1.52.68-1.52 1.517a1.52 1.52 0 0 0 3.04 0 1.52 1.52 0 0 0-1.52-1.517M25.725 9.258h1.692V1.606h-1.692z"/>
        <path d="M26.551.412l3.297 3.293-1.067 1.066-2.23-2.226-2.56 2.555-1.068-1.067zM25.68 54.69h1.691V47.04H25.68zM43.856 28.855h7.663v-1.69h-7.663z"/>
        <path d="M48.017 25.433l2.56 2.556-2.229 2.227 1.069 1.064 3.296-3.29-3.629-3.622zM1.337 28.807H9V27.12H1.337z"/>
        <path d="M.141 27.983l3.3-3.292 1.067 1.065-2.231 2.227 2.56 2.555-1.066 1.066zM6.743 47.729l-1.195-1.193 5.418-5.411 1.197 1.194z"/>
        <path d="M5.315 47.99v-4.656h1.51v3.148h3.62v1.508zM43.996 8.436l1.197 1.192-5.42 5.412-1.197-1.194z"/>
        <path d="M45.425 8.175v4.656h-1.51V9.683h-3.621V8.175zM45.294 46.666L44.1 47.859l-5.42-5.41 1.197-1.193z"/>
        <path d="M45.556 48.092h-4.665v-1.508h3.154V42.97h1.511zM5.431 9.137l1.196-1.193 5.419 5.409-1.195 1.193z"/>
        <path d="M5.17 7.71h4.665v1.508H6.679v3.615H5.17zM27.553 30.447a3.641 3.641 0 0 0 3.644 3.637h-3.644v-3.637z"/>
        <path d="M21.14 43.729h11.14V34.03H21.14v9.699zm1.701-1.698h7.737V35.73h-7.737v6.301z"/>
    </g>
</svg>
