<svg xmlns="http://www.w3.org/2000/svg" xmlns:xlink="http://www.w3.org/1999/xlink" width="52" height="57" viewBox="0 0 52 57">
    <defs>
        <path id="a" d="M.26.154h1.932V2.09H.26z"/>
        <path id="c" d="M.82.117h47.9v35.63H.82z"/>
    </defs>
    <g fill="none" fill-rule="evenodd">
        <path fill="#FFF" d="M1.868 2.899a.967.967 0 1 0-.001 1.934.967.967 0 0 0 .001-1.934M5.335 4.835A.968.968 0 1 0 5.334 2.9a.968.968 0 0 0 0 1.936M1.868 6.429a.967.967 0 1 0 0 1.935.967.967 0 0 0 0-1.935M50.418 51.424a.968.968 0 0 0 0 1.937.965.965 0 0 0 .966-.968.966.966 0 0 0-.966-.969M46.95 51.424a.969.969 0 0 0 0 1.937.965.965 0 0 0 .966-.968.966.966 0 0 0-.965-.969"/>
        <g transform="translate(49.192 47.74)">
            <mask id="b" fill="#fff">
                <use xlink:href="#a"/>
            </mask>
            <path fill="#FFF" d="M.26 1.122a.967.967 0 1 0 1.934.002.967.967 0 0 0-1.935-.002" mask="url(#b)"/>
        </g>
        <path fill="#FFF" d="M46.097 41.247c-.484-.979-1.001-1.968-1.282-3.003-1.038-3.858-.713-7.744.069-11.595.504-2.493.781-4.966.429-7.496-1.056-7.568-7.603-13.14-15.986-13.52-4.522-.205-8.504 1.09-11.889 3.832-3.301 2.68-5.353 6.029-6.27 9.995-1.091 4.714-3.715 8.623-7.664 11.797-.662.53-.76 1.112-.285 1.6.477.49 1.117.47 1.774-.057 3.862-3.102 6.564-6.886 7.981-11.42.438-1.392.726-2.836 1.286-4.184 2.353-5.658 8.37-10.354 16.236-9.353 3.981.507 7.319 2.128 9.74 5.112 2.927 3.608 3.483 7.712 2.661 12.02-.51 2.668-.96 5.333-1.007 8.05.077 1.078.113 2.161.24 3.234.252 2.129.812 4.179 2.02 6.04.424.655 1.028.852 1.624.548.602-.307.667-.901.323-1.6"/>
        <g transform="translate(2.086 .619)">
            <mask id="d" fill="#fff">
                <use xlink:href="#c"/>
            </mask>
            <path fill="#FFF" d="M47.911 27.478c.419-2.09.866-4.175.794-6.315.06-.009-.093-.224-.033-.23-.266-1.767-.172-3.355-.608-5.087C45.09 3.976 32.815-1.356 22.148.467 16.44 1.444 11.975 4.29 8.493 8.478c-2.289 2.751-3.82 5.833-4.59 9.225a15.603 15.603 0 0 1-2.772 5.972c-.347.464-.454.916-.052 1.385.512.598 1.356.516 1.888-.192 1.386-1.845 2.408-3.846 2.954-6.029.455-1.818.97-3.612 1.845-5.305 4-7.756 12.462-12.745 22.349-11.01 4.834.848 8.913 2.917 11.97 6.486 4.105 4.799 5.076 10.304 3.976 16.173-.585 3.135-1.103 6.253-.774 9.443.072.705.588 1.181 1.238 1.116.672-.07 1.064-.598 1.007-1.3a24.899 24.899 0 0 1 .38-6.964" mask="url(#d)"/>
        </g>
        <path fill="#FFF" d="M39.787 39.994c-1.347-4.696-1.098-9.424-.164-14.139.444-2.234.766-4.448.294-6.71-1.556-7.448-9.38-9.74-14.72-8.193-4.882 1.417-7.573 4.754-8.707 9.16-.913 3.544-2.34 6.846-4.616 9.832-2.025 2.658-4.494 4.906-7.386 6.775-.299.192-.593.476-.727.777-.181.405-.01.818.403 1.08.503.317.99.225 1.469-.084 5.577-3.59 9.62-8.267 11.889-14.17.61-1.593.926-3.277 1.494-4.885 1.413-4.001 5.328-7.374 10.584-6.782 3.445.39 6.033 1.943 7.446 4.913 1.017 2.14 1.073 4.389.602 6.642-.613 2.935-1.063 5.882-1.044 9.057-.03 2.047.193 4.25.75 6.419.689 2.685 1.858 5.16 3.873 7.252.542.56 1.204.628 1.71.208.507-.42.519-.993 0-1.536-1.56-1.635-2.554-3.538-3.15-5.616"/>
        <path fill="#FFF" d="M33.31 29.132c.76-2.4 1.335-4.835 1.543-7.231-.032-.496-.033-.888-.085-1.277-.295-2.213-1.377-3.945-3.74-4.77-2.435-.852-4.728-.612-6.703 1.055-1.452 1.226-2.31 2.766-2.728 4.524-.17.71-.346 1.419-.57 2.113-2.365 7.33-7.101 13.075-13.921 17.42-.707.45-.896 1.043-.508 1.56.41.542 1.048.607 1.766.146 8.013-5.143 13.32-11.974 15.432-20.79.324-1.345.972-2.517 2.067-3.48 1.904-1.674 5.955-1.129 6.547 1.841.158.794.202 1.644.088 2.442-.472 3.261-1.42 6.416-2.73 9.478-1.808 4.236-4.232 8.134-7.66 11.463a27.103 27.103 0 0 1-8.513 5.625c-.445.185-.906.4-.902.88.004.332.17.732.412.978.347.346.833.267 1.301.073 4.317-1.771 7.923-4.39 10.922-7.72 3.816-4.234 6.323-9.088 7.981-14.33M35.978 44.657c-.844-2.118-1.284-4.306-1.432-6.548-.04-.617-.34-.991-.903-1.11-.523-.115-1.007.142-1.301.703-.337.637-.655 1.281-.993 1.916-2.706 5.091-6.455 9.337-11.823 12.276-.768.421-1.565.795-2.34 1.202-.473.247-.703.634-.578 1.127.116.458.461.775.978.79.305.01.636-.106.917-.237 6.05-2.817 10.593-7.042 13.843-12.47.1-.172.214-.337.396-.615.095.408.148.664.213.918.777 3.011 2.065 5.8 4.307 8.166.536.564 1.192.661 1.706.27.558-.42.569-1.01-.004-1.617-1.335-1.414-2.287-3.024-2.986-4.771"/>
        <path fill="#FFF" d="M29.368 22.498c.117-.464-.08-.849-.52-1.105-.731-.421-1.523-.02-1.741.874a38.656 38.656 0 0 1-5.635 12.661c-2.977 4.375-6.79 7.946-11.926 10.212-.293.13-.601.238-.873.399-.43.258-.627.643-.482 1.109.15.482.53.735 1.164.79.168-.055.425-.12.662-.22 2.52-1.046 4.838-2.391 6.895-4.082 6.756-5.559 10.461-12.669 12.456-20.638M32.706 49.718c-.575-.806-1.359-.906-2.037-.178a34.723 34.723 0 0 1-5.73 4.92 1.428 1.428 0 0 0-.52.715c-.126.432.085.809.51 1.044.451.247.91.212 1.304-.095 1.768-1.368 3.524-2.748 5.315-4.148.416.497.88 1.081 1.375 1.645.478.545 1.143.645 1.655.286.55-.385.568-.975.1-1.574a71.442 71.442 0 0 1-1.972-2.615"/>
    </g>
</svg>
