<svg xmlns="http://www.w3.org/2000/svg" xmlns:xlink="http://www.w3.org/1999/xlink" width="57" height="57" viewBox="0 0 57 57">
    <defs>
        <path id="a" d="M0 .125h28.866V28.99H0z"/>
    </defs>
    <g fill="none" fill-rule="evenodd">
        <g transform="translate(.4 27.542)">
            <mask id="b" fill="#fff">
                <use xlink:href="#a"/>
            </mask>
            <path fill="#FFF" d="M14.433 27.261c-7.005 0-12.704-5.698-12.704-12.704 0-7.005 5.699-12.703 12.704-12.703 7.005 0 12.704 5.698 12.704 12.703 0 7.006-5.699 12.704-12.704 12.704m0-27.136C6.475.125 0 6.6 0 14.557c0 7.958 6.475 14.434 14.433 14.434s14.433-6.476 14.433-14.434C28.866 6.6 22.391.125 14.433.125" mask="url(#b)"/>
        </g>
        <path fill="#FFF" d="M15.216 42.037H12.27v-4.774h2.946c1.572 0 2.632.942 2.632 2.416 0 1.435-1.06 2.358-2.632 2.358m4.615-2.358c0-2.297-1.63-4.145-4.262-4.145h-5.245V49.46h1.946v-2.21a3.5 3.5 0 0 1 2.21-3.254l3.054 5.464h2.239l-3.32-5.833c2.101-.394 3.378-1.945 3.378-3.949M27.265 30.727l1.047-1.05-1.22-1.223-1.05 1.05zM48.98 6.568l-2.188 2.188 1.22 1.222 2.189-2.188zM37.07 20.923L35.846 19.7l-2.189 2.188 1.223 1.223zM41.447 16.546l-1.223-1.224-2.188 2.19 1.221 1.222zM44.603 10.944l-2.19 2.19 1.22 1.222 2.19-2.189zM29.28 26.266l1.221 1.224 2.19-2.19-1.223-1.222zM51.168 4.378l1.222 1.223 1.05-1.048-1.224-1.224z"/>
        <path fill="#FFF" d="M55.598.55H42.402v1.73h9.09a3.496 3.496 0 0 1 3.241 2.848v9.396h1.73V1.414L55.598.55zM26.278 4.636l-1.222-1.222L9.027 19.44v-8.418h-1.73v10.505l1.476.611zM52.208 35.01l-8.056 8.055-8.052-8.053-1.222 1.222 8.053 8.055-8.054 8.054 1.22 1.224 8.055-8.057 8.056 8.054 1.22-1.223-8.052-8.052 8.054-8.056z"/>
    </g>
</svg>
