<svg xmlns="http://www.w3.org/2000/svg" width="59" height="55" viewBox="0 0 59 55">
    <path fill="#FEFEFE" fill-rule="evenodd" d="M54.037 43.922v-5.408l-.89-.89h-6.33v-4.517h8.133V22.291h-8.133v-5.41l-.893-.889H30.571v-4.518h8.135V.659h-18.05v10.815h8.133v4.518H13.435l-.891.889v5.41H4.41v10.816h8.134v4.517H6.215l-.892.89v5.408H.8v10.816h10.83V43.922H7.109v-4.518h12.655v4.518h-4.522v10.816h10.831V43.922h-4.525v-5.408l-.892-.89h-6.33v-4.517h8.135V22.291h-8.135v-4.519h30.71v4.519H36.9v10.816h8.135v4.517h-6.329l-.893.89v5.408H33.29v10.816h10.832V43.922h-4.525v-4.518h12.657v4.518H47.73v10.816h10.83V43.922h-4.523zM2.585 52.957h7.263v-7.255H2.585v7.255zm21.7-7.255v3.852a3.6 3.6 0 0 1-3.416 3.403h-3.846v-7.255h7.263zM6.194 31.327h14.484v-7.255H6.193v7.255zM22.439 9.693V5.475a3.602 3.602 0 0 1 3.029-3.036h11.455v7.254H22.44zm12.635 43.264h7.263v-7.255h-7.263v7.255zm3.609-21.63v-7.256h14.484v4.11a3.609 3.609 0 0 1-3.201 3.146H38.683zm10.831 21.63h7.263v-7.255h-7.263v7.255z"/>
</svg>
