<svg xmlns="http://www.w3.org/2000/svg" width="60" height="55" viewBox="0 0 60 55">
    <g fill="#FEFEFE" fill-rule="evenodd">
        <path d="M5.475 5.722c.407 0 .74-.333.74-.745a.742.742 0 1 0-1.485 0c0 .412.334.745.745.745M8.054 5.722c.409 0 .74-.333.74-.745a.742.742 0 1 0-1.484 0c0 .412.333.745.744.745M10.633 5.722c.408 0 .74-.333.74-.745a.742.742 0 1 0-1.484 0c0 .412.333.745.744.745"/>
        <path d="M14.572 42.265l-8.69 8.74v-8.74H2.366V12.573c0-1.96 1.57-3.54 3.507-3.54h51.6V38.75a3.513 3.513 0 0 1-3.377 3.515H14.572zM4.06 2.047h51.726c.985 0 1.684.841 1.684 2.028v3.193H2.365V4.075c0-1.187.697-2.028 1.696-2.028zM55.787.282H4.061C2.124.282.668 1.92.668 4.075v39.077l.86.888h2.59v10.227h.997L15.28 44.04h43.04l.847-.888V4.075c0-2.155-1.457-3.793-3.38-3.793z"/>
        <path d="M19.421 15.362l2.313 6.363h-4.625l2.312-6.363zm-3.398 9.353h6.798l1.391 3.848h3.54L21.38 11.729h-3.776l-6.419 16.834h3.446l1.392-3.848zM31.283 13.497h18.244V11.73H31.283zM31.283 18.742h18.244v-1.77H31.283zM31.283 23.715h18.244v-1.767H31.283zM31.283 28.69h18.244v-1.768H31.283zM11.187 33.665h38.342v-1.77H11.187zM11.187 38.637h38.342v-1.768H11.187z"/>
    </g>
</svg>
