<svg xmlns="http://www.w3.org/2000/svg" width="56" height="55" viewBox="0 0 56 55">
    <g fill="#FEFEFE" fill-rule="evenodd">
        <path d="M53.813 23.767c0 1.607-1.282 2.914-2.856 2.914-1.541 0-2.796-1.253-2.85-2.811 0-.033.005-.068.005-.103v-6.726h5.7v6.726zM52.9 52.831H22.34c-1.942-.118-3.486-1.726-3.552-3.72V31.563H9.315V52.83h-5.71V28.17a4.623 4.623 0 0 0 1.917.417c1.548 0 2.923-.769 3.786-1.947.862 1.178 2.235 1.947 3.785 1.947 1.55 0 2.925-.769 3.786-1.947.863 1.178 2.237 1.947 3.788 1.947 1.548 0 2.923-.769 3.786-1.947.862 1.178 2.235 1.947 3.785 1.947 1.55 0 2.925-.769 3.786-1.947.863 1.178 2.238 1.947 3.788 1.947 1.548 0 2.923-.769 3.787-1.947.862 1.178 2.234 1.947 3.785 1.947 1.55 0 2.925-.769 3.785-1.947.864 1.178 2.237 1.947 3.788 1.947.693 0 1.35-.157 1.943-.43V52.83zM11.187 36.4h5.73V33.47h-5.73v2.933zm0 16.43h5.73V38.31h-5.73v14.52zM2.665 23.767v-6.726h5.702v6.726c0 .035.004.069.005.1-.052 1.56-1.31 2.814-2.85 2.814-1.576 0-2.857-1.307-2.857-2.914zm13.28.1c-.052 1.56-1.31 2.814-2.852 2.814-1.541 0-2.796-1.253-2.85-2.811 0-.033.005-.068.005-.103v-6.726h5.692v6.726c0 .035.003.069.004.1zm7.572 0c-.052 1.56-1.31 2.814-2.85 2.814-1.543 0-2.797-1.253-2.85-2.811 0-.033.005-.068.005-.103v-6.726h5.69v6.726c0 .035.005.069.005.1zm7.574 0c-.052 1.56-1.31 2.814-2.853 2.814-1.539 0-2.796-1.253-2.85-2.811 0-.033.005-.068.005-.103v-6.726h5.692v6.726c0 .035.003.069.006.1zm7.572 0c-.053 1.56-1.31 2.814-2.85 2.814-1.545 0-2.798-1.253-2.852-2.811 0-.033.005-.068.005-.103v-6.726h5.69v6.726c0 .035.007.069.007.1zm7.573 0c-.052 1.56-1.31 2.814-2.852 2.814-1.54 0-2.797-1.253-2.851-2.811 0-.033.005-.068.005-.103v-6.726h5.692v6.726c0 .035.003.069.006.1zm-42.63-21.3H52.9v12.556H3.606V2.567zM54.77 15.144V.659H1.736v14.464h-.005l-.936.953v7.691c0 1.08.353 2.073.941 2.878v28.093H54.77V26.604a4.844 4.844 0 0 0 .914-2.837v-7.69l-.913-.933z"/>
        <path d="M26.343 47.037h20.86V33.47h-20.86v13.567zm22.73-15.475h-24.6v15.489h-.975v1.907H50.04v-1.907h-.968V31.562zM49.11 10.34H7.392v-.396c.148-1.835 1.55-3.304 3.331-3.514H49.11v3.91zM5.52 12.248h45.46V4.522H5.52v7.726z"/>
        <path d="M36.473 38.997l-1.322-1.35-3.792 3.862 1.322 1.35zM42.173 38.997l-1.321-1.35-3.791 3.862 1.322 1.35z"/>
    </g>
</svg>
