<svg xmlns="http://www.w3.org/2000/svg" width="60" height="56" viewBox="0 0 60 56">
    <g fill="#FEFEFE" fill-rule="evenodd">
        <path d="M8.448 36.029H21.5v-5.057H8.448v5.057zm14.891-11.667h13.052v-6.457H23.34v6.457zm14.89 17.78h13.053v-5.6H38.23v5.6zM21.5 53.297h-9.47a3.79 3.79 0 0 1-3.581-3.723V37.865H21.5v15.431zm29.783-3.22a3.792 3.792 0 0 1-2.973 3.156h-7.083a3.796 3.796 0 0 1-2.996-3.6V43.98h13.052v6.096zM23.339 26.198h13.052v27.066H26.6a3.783 3.783 0 0 1-3.26-3.587V26.199zm33.353 27.097a3.786 3.786 0 0 1-3.572-3.62v-14.05l-.919-.918H38.23v-17.72l-.92-.918H22.42l-.92.918v12.148H7.53l-.92.918v19.468c0 2.023-1.593 3.661-3.595 3.774H.084v1.839h59.562v-1.839h-2.954zM29.052 9.735h2.058V.001h-1.787c-.195 1.019-1.186 1.814-2.614 1.829v1.395h2.343v6.51z"/>
        <path d="M45.98 26.125c-1.022 0-1.728-.719-1.773-1.71l-1.998.39c.12 1.635 1.503 3.106 3.77 3.106 2.36 0 3.74-1.545 3.74-3.225 0-1.785-1.352-2.91-2.824-2.97l2.524-2.102V17.95h-6.895v1.784h4.265l-2.551 2.192.916 1.44c.211-.077.464-.15.886-.15.932 0 1.591.523 1.591 1.44 0 .81-.616 1.469-1.651 1.469M14.245 16.592l-1.606.962c-1.742 1.048-2.282 2.443-2.296 4.154h7.208v-1.784h-4.67c.149-.376.464-.644.84-.885l1.878-1.14c1.202-.737 1.891-1.756 1.891-3.016 0-1.695-1.337-3.134-3.513-3.134-2.269 0-3.561 1.544-3.561 3.253 0 .24.047.54.077.676l1.966.058a2.13 2.13 0 0 1-.074-.538c0-.914.51-1.62 1.545-1.62.977 0 1.472.63 1.472 1.336 0 .674-.33 1.185-1.157 1.678"/>
    </g>
</svg>
