<svg xmlns="http://www.w3.org/2000/svg" width="56" height="55" viewBox="0 0 56 55">
    <g fill="#FEFEFE" fill-rule="evenodd">
        <path d="M18.85 15.858l-1.37 1.175-1.372-1.175-1.07 1.264 1.169 1.002-1.17 1.003 1.071 1.263 1.372-1.175 1.37 1.175 1.072-1.263-1.17-1.003 1.17-1.002zM50.364 42.354l-1.169-1.003 1.169-1.002-1.073-1.265-1.371 1.175-1.37-1.175-1.071 1.265 1.169 1-1.172 1.005 1.074 1.263 1.37-1.175 1.371 1.175z"/>
        <path d="M15.384 48.07v-2.177l-.023-23.372-.824-.831H7.914c-.325-.03-3.461-.37-5.02-2.1a4.214 4.214 0 0 1-.407-.556c-.005-.006-.007-.015-.01-.021a3.55 3.55 0 0 1-.455-1.678v-.003c0-2.402 2.626-4.358 5.854-4.358v.001h40.162c2.38 0 4.48-.91 5.856-2.3v34.126c-.03 1.808-1.72 3.27-3.807 3.27h3.807-38.51zm-1.652.83c0 2.405-2.627 4.36-5.856 4.36-3.228 0-5.855-1.955-5.855-4.36v-3.363h3.286v-1.66H2.02v-1.733h7.676v-1.66H2.021V21.06c.007.006.015.01.022.015 1.358 1.36 3.411 2.248 5.741 2.271.01.001.022.004.032.004h.022c.014 0 .026.003.038.003v-.003h2.037c2.09.006 3.781 1.472 3.8 3.286l.02 19.26v3.006zm28.45-41.945c0-2.404 2.628-4.357 5.856-4.357 3.228 0 5.856 1.953 5.856 4.357v.002c-.002 2.402-2.629 4.356-5.856 4.356h-5.855V6.955zm13.363 0c0-3.32-3.368-6.018-7.507-6.018-4.14 0-7.507 2.699-7.507 6.018v4.36H7.876C3.737 11.314.37 14.013.37 17.33V48.9c0 3.32 3.366 6.018 7.506 6.018 3.785 0 6.892-2.264 7.403-5.187h39.44l.826-.83V6.955z"/>
        <path d="M40.508 39.598l-.476-.13c-.33-.073-.634-.222-.873-.305-.238-.084-.385-.167-.385-.167l-.6 1.29s.17.095.449.195c.275.1.632.267 1.014.354.189.053.379.103.559.152.174.05.347.063.49.093l.484.076.175-1.412-.414-.068c-.123-.026-.272-.033-.423-.078M36.64 37.59c-.178-.18-.434-.404-.66-.656-.11-.129-.222-.255-.324-.376-.104-.12-.204-.23-.272-.34l-.244-.346-1.166.81s.114.157.28.396c.08.123.194.251.312.39.12.137.246.286.375.434.26.29.555.548.762.753.104.104.207.17.273.227l.105.083.886-1.108s-.032-.027-.09-.072c-.056-.05-.146-.105-.236-.196M33.988 33.59a64.92 64.92 0 0 0-.143-.41c-.052-.151-.08-.32-.124-.485l-.12-.486c-.027-.155-.044-.304-.063-.431-.037-.251-.06-.42-.06-.42l-1.41.154s.03.19.07.482c.022.143.043.31.075.491.041.178.088.365.133.556.05.187.086.379.144.552l.164.473.16.459 1.312-.532s-.056-.16-.138-.403M25.55 19.53c-.19-.05-.378-.102-.557-.15-.175-.05-.348-.065-.492-.093l-.484-.076-.174 1.412s.166.028.414.067c.124.025.27.033.422.078.154.041.314.085.476.13.33.073.635.222.873.305.238.083.386.167.386.167l.6-1.29s-.17-.095-.448-.195c-.276-.099-.634-.266-1.015-.356M30.933 23.288c-.08-.123-.193-.252-.311-.39-.12-.137-.247-.285-.375-.435-.26-.288-.555-.547-.763-.753-.103-.102-.206-.17-.272-.225a6.367 6.367 0 0 1-.105-.084l-.886 1.108.09.073c.055.048.146.104.235.195.179.179.436.402.663.654l.322.378c.105.12.204.23.273.34l.243.344 1.167-.808s-.114-.157-.281-.397M33.05 28.373c-.023-.144-.043-.312-.075-.491-.042-.179-.09-.366-.135-.558-.048-.186-.083-.378-.144-.55l-.16-.473-.162-.46-1.312.533.139.401c.04.12.089.262.142.412.052.151.08.32.123.484.04.166.083.33.12.487.027.155.045.304.062.43.04.252.062.422.062.422l1.41-.155s-.03-.192-.07-.482M47.571 18.527a.723.723 0 0 0 .721-.725c0-.4-.323-.725-.721-.725-.4 0-.722.324-.722.725 0 .4.322.725.722.725M44.226 20.41c-.4 0-.722.324-.722.725a.722.722 0 1 0 1.443 0c0-.4-.323-.725-.721-.725M20.808 33.768a.723.723 0 0 0-.721.725.722.722 0 1 0 1.442 0c0-.4-.322-.725-.721-.725M24.154 37.255a.723.723 0 0 0-.721.726.722.722 0 1 0 1.443 0c0-.401-.323-.726-.722-.726M20.808 37.255a.723.723 0 0 0-.721.726.722.722 0 1 0 1.442 0c0-.401-.322-.726-.721-.726M47.199 21.164c0 .401.323.726.721.726.4 0 .721-.325.721-.726a.722.722 0 1 0-1.442 0"/>
    </g>
</svg>
