<svg xmlns="http://www.w3.org/2000/svg" width="56" height="56" viewBox="0 0 56 56">
    <g fill="#FEFEFE" fill-rule="evenodd">
        <path d="M30.544 12.62v-.961c0 1.426-.62 2.58-1.399 2.662h-4.906V7.985h6.317l-.012 4.636zM54.525 6.34H32.208l.016-5.43L31.4.081H1.154L.33.907V49.24l.823.823c7.008 0 8.535-4.732 8.865-6.671h17.716v-1.648H9.284l-.824.815c-.002.23-.134 5.417-6.484 5.83v-8.176h.001V3.112c.09-.757 1.192-1.356 2.57-1.382h23.385c1.44.018 2.605 1.149 2.637 1.961l-.007 2.648h-7.147l-.823.823v7.982l.823.823h7.945l.825-.822.02-7.158h19c1.344.11 2.409 1.482 2.495 2.29v35.428h.001v7.722c-5.755-.383-5.94-5.042-5.946-5.245l-.823-.811H28.858v1.648h17.349c.337 1.822 1.816 6.079 8.263 6.079h.059l.818-.823v-8.57h.001V7.164l-.823-.825z"/>
        <path d="M21.394 26.564h16.68v-1.646h-16.68zM21.364 30.005h16.68v-1.648h-16.68zM21.364 33.2h8.369V31.55h-8.37zM11.27 15.903H9.464l.903-2.47.903 2.47zm-4.118 2.652h1.345l.544-1.493h2.652l.544 1.493h1.383l-2.488-6.531H9.66l-2.507 6.53zM16.895 16.722c0 .8-.48 1.05-.995 1.05-.397 0-.59-.26-.59-.525 0-.351.248-.525.561-.57l1.024-.159v.204zm-.342-.94l-1.116.167c-.754.109-1.352.56-1.352 1.372 0 .708.59 1.362 1.556 1.362.673 0 1.105-.313 1.335-.672 0 .175.02.423.046.544h1.125a5.077 5.077 0 0 1-.055-.72v-2.228c0-.912-.534-1.723-1.972-1.723-1.216 0-1.87.782-1.943 1.493l1.087.23c.035-.396.331-.737.866-.737.515 0 .765.268.765.59 0 .156-.083.285-.342.322z"/>
    </g>
</svg>
