<svg xmlns="http://www.w3.org/2000/svg" width="58" height="55" viewBox="0 0 58 55">
    <g fill="#FEFEFE" fill-rule="evenodd">
        <path d="M55.96 45.43H32.725V19.21c0-1.175.685-1.985 1.664-1.985h19.919c.968 0 1.654.81 1.654 1.985V45.43zm0 7.54H32.725V47.157H55.96v5.813zM1.827 50.587V9.629h41.717v5.87h-9.155c-1.9 0-3.33 1.59-3.33 3.712v31.376H1.827zm0-46.578c0-1.164.676-1.987 1.654-1.987h38.41c.979 0 1.653.823 1.653 1.987V7.89H1.826V4.009zm52.48 11.49H45.21V4.008c0-2.112-1.43-3.714-3.32-3.714H3.48C1.59.295.152 1.897.152 4.01v47.449l.843.868h30.065v1.512l.834.857h24.901l.832-.857V19.211c0-2.122-1.43-3.713-3.32-3.713z"/>
        <path d="M44.343 48.997a1.068 1.068 0 0 1 0 2.134 1.067 1.067 0 0 1 0-2.134m0 3.328a2.26 2.26 0 0 0 0-4.522 2.26 2.26 0 0 0-2.252 2.262 2.26 2.26 0 0 0 2.252 2.26M4.87 4.173a.728.728 0 0 0-.729.73.728.728 0 1 0 1.456 0 .728.728 0 0 0-.727-.73M7.4 4.173a.728.728 0 0 0-.728.73.728.728 0 1 0 1.456 0 .728.728 0 0 0-.727-.73M9.933 4.173a.728.728 0 0 0-.73.73.728.728 0 1 0 1.456 0 .728.728 0 0 0-.726-.73M6.731 26.006h16.433V24.38H6.73zM6.704 29.406h16.431v-1.628H6.704zM6.701 32.563h8.246v-1.629H6.7zM40.571 30.126l.89-2.44.887 2.44H40.57zm.192-3.83l-2.465 6.447h1.323l.534-1.47h2.61l.534 1.47h1.36l-2.447-6.447h-1.45zM47.89 30.935c0 .79-.472 1.036-.977 1.036-.391 0-.58-.254-.58-.518 0-.346.244-.518.551-.565l1.006-.154v.201zm1.178-1.101c0-.9-.525-1.7-1.938-1.7-1.197 0-1.84.772-1.913 1.473l1.069.227c.037-.392.327-.727.852-.727.508 0 .752.263.752.581 0 .155-.08.282-.335.32l-1.096.162c-.743.11-1.333.555-1.333 1.355 0 .7.58 1.346 1.532 1.346.66 0 1.087-.309 1.314-.663 0 .172.017.418.045.536h1.106a5.154 5.154 0 0 1-.055-.709v-2.201z"/>
    </g>
</svg>
